<?xml version="1.0" encoding="UTF-8"?><svg xmlns="http://www.w3.org/2000/svg" xmlns:xlink="http://www.w3.org/1999/xlink" viewBox="0 0 4096 2048"><defs><style>.uuid-5bff8583-57a7-4e26-bd08-0981bd108cfd{fill:none;}.uuid-8b9f95ec-6db3-4f63-af89-19929239e849{clip-path:url(#uuid-efa649b9-3356-4a9f-bedd-b1f498fb798f);}.uuid-928686f3-6f4a-4aac-9986-8b14ac3dd814{isolation:isolate;}.uuid-81f370c4-5e31-4f91-a87d-8cf93cbd45f7{mix-blend-mode:hue;}.uuid-c0c50031-01dd-4b09-bbcf-e1f17e0e1ca9{clip-path:url(#uuid-e8d226f1-1484-4bd4-a696-bab132063ab0);}.uuid-71561424-a722-4f03-a21f-494edeaed8c1{fill:#998675;}.uuid-e680a371-f1ec-481a-bcf1-5034b6c8107a{mix-blend-mode:screen;opacity:.43;}</style><clipPath id="uuid-e8d226f1-1484-4bd4-a696-bab132063ab0"><rect class="uuid-5bff8583-57a7-4e26-bd08-0981bd108cfd" x="-4752.06" y="-5655.64" width="3840" height="8759.41"/></clipPath><clipPath id="uuid-efa649b9-3356-4a9f-bedd-b1f498fb798f"><rect class="uuid-5bff8583-57a7-4e26-bd08-0981bd108cfd" x="-5272.96" y="-6320.89" width="4737.74" height="10369.92"/></clipPath></defs><g class="uuid-928686f3-6f4a-4aac-9986-8b14ac3dd814"><g id="uuid-d743ed46-18cd-4022-a069-f228fa65f338"><g class="uuid-81f370c4-5e31-4f91-a87d-8cf93cbd45f7"><path class="uuid-71561424-a722-4f03-a21f-494edeaed8c1" d="M2441.9,887.22c0-28.08-6.12-34.2-34.2-34.2h-136.78c-28.08,0-34.2,6.12-34.2,34.2s6.12,34.2,34.2,34.2,34.2,6.12,34.2,34.2v205.18c0,28.08,6.12,34.2,34.2,34.2s34.2-6.12,34.2-34.2v-205.18c0-28.08,6.12-34.2,34.2-34.2s34.2-6.12,34.2-34.2Z"/><path class="uuid-71561424-a722-4f03-a21f-494edeaed8c1" d="M1533.1,1086.57v5.82c.01,84.23-18.34,102.59-102.57,102.59s-102.59-18.35-102.59-102.59c0-28.08,6.12-34.2,34.2-34.2s34.2,6.12,34.2,34.2,6.12,34.2,34.2,34.2c28.08,0,34.2-5.35,34.2-29.92s-21.37-32.09-42.75-42.75c-52.18-26.02-94.04-42.06-94.04-94.04v-4.27c0-84.23,18.35-102.59,102.59-102.59s102.59,18.35,102.59,102.59c0,28.08-6.12,34.2-34.2,34.2s-34.2-6.12-34.2-34.2-6.12-34.2-34.2-34.2-34.2,5.35-34.2,29.92h0c0,23.63,21.37,32.09,42.75,42.74,52.18,26.02,94.04,42.06,94.04,94.04"/><path class="uuid-71561424-a722-4f03-a21f-494edeaed8c1" d="M3125.7,967.23v-45.82c0-56.16-12.24-68.39-68.39-68.39h-68.39c-56.16,0-68.39,12.24-68.39,68.39v239.37c0,28.08,6.12,34.2,34.2,34.2s34.2-6.12,34.2-34.2v-34.2c0-14.04,3.06-17.1,17.1-17.1,42.12,0,51.29,9.18,51.29,51.29,0,28.08,6.12,34.2,34.2,34.2s34.2-6.12,34.2-34.2v-22.57c0-70.2-15.29-85.49-85.49-85.49,70.2,0,85.49-15.29,85.49-85.49ZM3023.11,989.8c-28.08,0-34.2-6.12-34.2-34.2s6.12-34.2,34.2-34.2,34.2,6.12,34.2,34.2-6.12,34.2-34.2,34.2Z"/><path class="uuid-71561424-a722-4f03-a21f-494edeaed8c1" d="M3821.78,967.23v-45.82c0-56.16-12.24-68.39-68.39-68.39h-68.39c-56.16,0-68.39,12.24-68.39,68.39v239.37c0,28.08,6.12,34.2,34.2,34.2s34.2-6.12,34.2-34.2v-34.2c0-14.04,3.06-17.1,17.1-17.1,42.12,0,51.29,9.18,51.29,51.29,0,28.08,6.12,34.2,34.2,34.2s34.2-6.12,34.2-34.2v-22.57c0-70.2-15.29-85.49-85.49-85.49,70.2,0,85.49-15.29,85.49-85.49ZM3719.19,989.8c-28.08,0-34.2-6.12-34.2-34.2s6.12-34.2,34.2-34.2,34.2,6.12,34.2,34.2-6.12,34.2-34.2,34.2Z"/><path class="uuid-71561424-a722-4f03-a21f-494edeaed8c1" d="M1696.57,853.02h-68.39c-56.16,0-68.39,12.24-68.39,68.39v239.37c0,28.08,6.12,34.2,34.2,34.2s34.2-6.12,34.2-34.2v-68.39c0-28.08,6.12-34.2,34.2-34.2,84.23,0,102.59-18.35,102.59-102.59v-34.2c0-56.16-12.24-68.39-68.39-68.39ZM1662.37,989.8c-28.08,0-34.2-6.12-34.2-34.2s6.12-34.2,34.2-34.2,34.2,6.12,34.2,34.2-6.12,34.2-34.2,34.2Z"/><path class="uuid-71561424-a722-4f03-a21f-494edeaed8c1" d="M1995.93,1160.78c0,28.08-6.12,34.2-34.2,34.2h-102.59c-56.16,0-68.39-12.24-68.39-68.39v-239.37c0-28.08,6.12-34.2,34.2-34.2s34.2,6.12,34.2,34.2v205.18c0,28.08,6.12,34.2,34.2,34.2h68.39c28.08,0,34.2,6.12,34.2,34.2Z"/><path class="uuid-71561424-a722-4f03-a21f-494edeaed8c1" d="M1172.79,1138.62l-75.67-115.05,75.11-114.2c15.43-23.46,13.68-31.93-9.78-47.36-23.46-15.43-31.93-13.68-47.36,9.78l-80.31,122.11v-105.67c0-28.08-6.12-34.2-34.2-34.2s-34.2,6.12-34.2,34.2v273.57c0,28.08,6.12,34.2,34.2,34.2s34.2-6.12,34.2-34.2v-43.44l21.42-32.56,59.46,90.4c15.43,23.46,23.9,25.21,47.36,9.78,23.46-15.43,25.21-23.9,9.78-47.36Z"/><path class="uuid-71561424-a722-4f03-a21f-494edeaed8c1" d="M308.43,1058.17c-28.08,0-34.2,6.12-34.2,34.2h-.01c0,84.23,18.35,102.59,102.59,102.59l34.21.02c56.16,0,68.39-12.24,68.39-68.39v-239.37c0-28.08-6.12-34.2-34.2-34.2h-102.59c-28.08,0-34.2,6.12-34.2,34.2s6.12,34.2,34.2,34.2l34.21-.03c28.08,0,34.2,6.12,34.2,34.2v136.82c0,28.08-6.12,34.2-34.2,34.2s-34.2-6.12-34.2-34.2-6.12-34.2-34.2-34.2"/><path class="uuid-71561424-a722-4f03-a21f-494edeaed8c1" d="M2219.42,1160.78c0,28.08-6.12,34.2-34.2,34.2h-136.78c-28.08,0-34.2-6.12-34.2-34.2s6.12-34.2,34.2-34.2,34.2-6.12,34.2-34.2v-136.78c0-28.08-6.12-34.2-34.2-34.2s-34.2-6.12-34.2-34.2,6.12-34.2,34.2-34.2h136.78c28.08,0,34.2,6.12,34.2,34.2s-6.12,34.2-34.2,34.2-34.2,6.12-34.2,34.2v136.78c0,28.08,6.12,34.2,34.2,34.2s34.2,6.12,34.2,34.2Z"/><path class="uuid-71561424-a722-4f03-a21f-494edeaed8c1" d="M2595.48,955.61c0-28.08-6.12-34.2-34.2-34.2s-34.2,6.12-34.2,34.2v136.78c0,28.08,6.12,34.2,34.2,34.2s34.2-6.12,34.2-34.2c0-14.04-3.06-17.1-17.1-17.1-28.08,0-34.2-6.12-34.2-34.2s6.12-34.2,34.2-34.2c70.2,0,85.49,15.29,85.49,85.49,0,84.23-18.35,102.59-102.59,102.59h-34.2c-56.16,0-68.39-12.24-68.39-68.39v-205.18c0-56.16,12.24-68.39,68.39-68.39h34.2c84.23,0,102.59,18.35,102.59,102.59,0,28.08-6.12,34.2-34.2,34.2s-34.2-6.12-34.2-34.2Z"/><path class="uuid-71561424-a722-4f03-a21f-494edeaed8c1" d="M2791.06,1058.21c-28.08,0-34.2,6.12-34.2,34.2s6.12,34.2,34.2,34.2h68.43c28.08,0,34.2,6.11,34.2,34.19s-6.12,34.2-34.2,34.2h-102.63c-56.16,0-68.39-12.24-68.39-68.39v-205.18c0-56.16,12.24-68.39,68.39-68.39h102.62c28.08,0,34.2,6.11,34.2,34.19s-6.12,34.2-34.2,34.2h-68.42c-28.08,0-34.2,6.13-34.2,34.2s6.12,34.2,34.2,34.2h0c28.08-.01,34.2,6.11,34.2,34.18s-6.12,34.2-34.2,34.2"/><path class="uuid-71561424-a722-4f03-a21f-494edeaed8c1" d="M3487.14,1058.21c-28.08,0-34.2,6.12-34.2,34.2s6.12,34.2,34.2,34.2h68.43c28.08,0,34.2,6.11,34.2,34.19s-6.12,34.2-34.2,34.2h-102.63c-56.16,0-68.39-12.24-68.39-68.39v-205.18c0-56.16,12.24-68.39,68.39-68.39h102.62c28.08,0,34.2,6.11,34.2,34.19s-6.12,34.2-34.2,34.2h-68.42c-28.08,0-34.2,6.13-34.2,34.2s6.12,34.2,34.2,34.2h0c28.08-.01,34.2,6.11,34.2,34.18s-6.12,34.2-34.2,34.2"/><path class="uuid-71561424-a722-4f03-a21f-494edeaed8c1" d="M910.08,1058.19c28.08,0,34.2,6.12,34.2,34.2h.01c0,84.23-18.35,102.59-102.59,102.59l-34.21.02c-56.16,0-68.39-12.24-68.39-68.39v-205.21c0-56.16,12.23-68.39,68.39-68.39l34.21.02c84.23,0,102.59,18.35,102.59,102.59h-.01c0,28.08-6.12,34.2-34.2,34.2v-.02c-28.08,0-34.2-6.12-34.2-34.2s-6.12-34.2-34.2-34.2-34.2,6.12-34.2,34.2v136.82c0,28.08,6.12,34.2,34.2,34.2s34.2-6.12,34.2-34.2,6.12-34.2,34.2-34.2"/><path class="uuid-71561424-a722-4f03-a21f-494edeaed8c1" d="M3289.32,1024c56.16,0,68.39-12.24,68.39-68.39,0-84.23-18.35-102.59-102.59-102.59h-68.39c-28.08,0-34.2,6.12-34.2,34.2v273.57c0,28.08,6.12,34.2,34.2,34.2h102.56c56.16,0,68.39-12.24,68.39-68.39l.03-34.2c0-56.16-12.24-68.39-68.39-68.39ZM3246.58,921.41h17.1c21.06,0,25.65,4.59,25.65,25.65s-4.59,25.65-25.65,25.65h-17.1c-21.06,0-25.65-4.59-25.65-25.65s4.59-25.65,25.65-25.65ZM3263.76,1126.59h-17.1c-21.06,0-25.65-4.59-25.65-25.65s4.59-25.65,25.65-25.65h17.1c21.06,0,25.65,4.59,25.65,25.65s-4.59,25.65-25.65,25.65Z"/><path class="uuid-71561424-a722-4f03-a21f-494edeaed8c1" d="M644.74,853.02h-68.39c-56.16,0-68.39,12.24-68.39,68.39v239.37c0,28.08,6.12,34.2,34.2,34.2s34.2-6.12,34.2-34.2l-.09-68.31c0-28.08,6.12-34.2,34.2-34.2s34.2,6.12,34.2,34.2l.09,68.31c0,28.08,6.12,34.2,34.2,34.2s34.2-6.12,34.2-34.2v-239.37c0-56.16-12.24-68.39-68.39-68.39ZM610.46,989.8c-28.08,0-34.2-6.12-34.2-34.2s6.12-34.2,34.2-34.2,34.2,6.12,34.2,34.2-6.12,34.2-34.2,34.2Z"/></g></g><g id="uuid-e1bccaf1-fefc-4aff-9fe4-d86e6e4475b2"><g class="uuid-c0c50031-01dd-4b09-bbcf-e1f17e0e1ca9"><g class="uuid-8b9f95ec-6db3-4f63-af89-19929239e849"><image class="uuid-e680a371-f1ec-481a-bcf1-5034b6c8107a" width="10559" height="3752" transform="translate(-10270.22 -6688.99) scale(1.84 2.95)" xlink:href="../../../../../../../Downloads/AdobeStock_408505512.jpeg"/></g></g></g></g></svg>